<?xml version="1.0" encoding="UTF-8"?>
<svg width="1000px" height="598px" viewBox="0 0 1000 598" version="1.1" xmlns="http://www.w3.org/2000/svg" xmlns:xlink="http://www.w3.org/1999/xlink">
    <!-- Generator: Sketch 63.1 (92452) - https://sketch.com -->
    <title>Approach illustration</title>
    <desc>Created with Sketch.</desc>
    <g id="Page-1" stroke="none" stroke-width="1" fill="none" fill-rule="evenodd">
        <g id="Case-study-1" transform="translate(-221.000000, -2062.000000)">
            <g id="Approach" transform="translate(213.000000, 1977.000000)">
                <g id="Group-56">
                    <g id="Approach-illustration" transform="translate(8.000000, 79.000000)">
                        <g id="Approach" transform="translate(0.000000, 160.000000)">
                            <g id="Group-6">
                                <line x1="59.5" y1="11.5" x2="59.5" y2="69.5" id="Line-4" stroke="#EEBCBE" stroke-width="4" stroke-linecap="square"></line>
                                <circle id="Oval" fill="#EEBCBE" cx="59" cy="10" r="10"></circle>
                                <ellipse id="Oval" fill="#EEBCBE" cx="60" cy="120.216346" rx="60" ry="60.2163462"></ellipse>
                            </g>
                            <g id="Group-6" transform="translate(280.000000, 149.500000) rotate(180.000000) translate(-280.000000, -149.500000) translate(220.000000, 59.000000)">
                                <line x1="59.5" y1="11.5" x2="59.5" y2="69.5" id="Line-4" stroke="#EEBCBE" stroke-width="4" stroke-linecap="square"></line>
                                <circle id="Oval" fill="#EEBCBE" cx="59" cy="10" r="10"></circle>
                                <ellipse id="Oval" fill="#EEBCBE" cx="60" cy="120.216346" rx="60" ry="60.2163462"></ellipse>
                            </g>
                            <g id="Group-6" transform="translate(440.000000, 0.000000)">
                                <line x1="59.5" y1="11.5" x2="59.5" y2="69.5" id="Line-4" stroke="#EEBCBE" stroke-width="4" stroke-linecap="square"></line>
                                <circle id="Oval" fill="#EEBCBE" cx="59" cy="10" r="10"></circle>
                                <ellipse id="Oval" fill="#EEBCBE" cx="60" cy="120.216346" rx="60" ry="60.2163462"></ellipse>
                            </g>
                            <g id="Group-6" transform="translate(720.000000, 149.500000) rotate(180.000000) translate(-720.000000, -149.500000) translate(660.000000, 59.000000)">
                                <line x1="59.5" y1="11.5" x2="59.5" y2="69.5" id="Line-4" stroke="#EEBCBE" stroke-width="4" stroke-linecap="square"></line>
                                <circle id="Oval" fill="#EEBCBE" cx="59" cy="10" r="10"></circle>
                                <ellipse id="Oval" fill="#EEBCBE" cx="60" cy="120.216346" rx="60" ry="60.2163462"></ellipse>
                            </g>
                            <g id="Group-6" transform="translate(880.000000, 0.000000)">
                                <line x1="59.5" y1="11.5" x2="59.5" y2="69.5" id="Line-4" stroke="#EEBCBE" stroke-width="4" stroke-linecap="square"></line>
                                <circle id="Oval" fill="#EEBCBE" cx="59" cy="10" r="10"></circle>
                                <ellipse id="Oval" fill="#EEBCBE" cx="60" cy="120.216346" rx="60" ry="60.2163462"></ellipse>
                            </g>
                            <line x1="121.5" y1="120.5" x2="900.5" y2="120.5" id="Line-5" stroke="#EEBCBE" stroke-width="7" stroke-linecap="square"></line>
                            <g id="fe-prototype" transform="translate(695.000000, 96.000000)">
                                <g id="Icon" transform="translate(6.000000, 6.000000)" fill="#FFFFFF">
                                    <path d="M12.75,19 L8.025,19 C7.0820715,20.6332001 5.1597461,21.4294533 3.33814813,20.9413576 C1.51655015,20.4532619 0.249894151,18.8025237 0.249894151,16.9166667 C0.249894151,15.0308097 1.51655015,13.3800714 3.33814813,12.8919757 C5.1597461,12.40388 7.0820715,13.2001333 8.025,14.8333333 L12.75,14.8333333 L12.75,4.41666667 C12.75,2.11548021 14.6154802,0.25 16.9166667,0.25 L33.5833333,0.25 C35.8845198,0.25 37.75,2.11548021 37.75,4.41666667 L37.75,33.5833333 C37.75,35.8845198 35.8845198,37.75 33.5833333,37.75 L16.9166667,37.75 C14.6154802,37.75 12.75,35.8845198 12.75,33.5833333 L12.75,19 Z M16.9166667,19 L16.9166667,33.5833333 L33.5833333,33.5833333 L33.5833333,4.41666667 L16.9166667,4.41666667 L16.9166667,14.8333333 L21.6416667,14.8333333 C22.5845952,13.2001333 24.5069206,12.40388 26.3285185,12.8919757 C28.1501165,13.3800714 29.4167725,15.0308097 29.4167725,16.9166667 C29.4167725,18.8025237 28.1501165,20.4532619 26.3285185,20.9413576 C24.5069206,21.4294533 22.5845952,20.6332001 21.6416667,19 L16.9166667,19 Z" id="Icon-Shape"></path>
                                </g>
                                <rect id="ViewBox" fill-rule="nonzero" x="0" y="0" width="50" height="50"></rect>
                            </g>
                            <g id="mdi-ab-testing" transform="translate(920.000000, 101.000000)" fill-rule="nonzero">
                                <g id="Icon" transform="translate(3.000000, 3.000000)" fill="#FFFFFF">
                                    <path d="M4,0.5 C2.06700338,0.5 0.5,2.06700338 0.5,4 L0.5,18 L4,18 L4,11 L7.5,11 L7.5,18 L11,18 L11,4 C11,2.06700338 9.43299662,0.5 7.5,0.5 L4,0.5 M4,4 L7.5,4 L7.5,7.5 L4,7.5 M35.5,24.125 L35.5,21.5 C35.5,19.5670034 33.9329966,18 32,18 L25,18 L25,35.5 L32,35.5 C33.9329966,35.5 35.5,33.9329966 35.5,32 L35.5,29.375 C35.4632069,27.9407692 34.3092308,26.7867931 32.875,26.75 C34.3092308,26.7132069 35.4632069,25.5592308 35.5,24.125 M32,32 L28.5,32 L28.5,28.5 L32,28.5 L32,32 M32,25 L28.5,25 L28.5,21.5 L32,21.5 M7.1325,34.8175 L4.3675,32.6825 L28.8675,1.1825 L31.6325,3.3175 L7.1325,34.8175 Z" id="Icon-Shape"></path>
                                </g>
                                <rect id="ViewBox" x="0" y="0" width="42" height="42"></rect>
                            </g>
                            <g id="mdi-head-heart-outline" transform="translate(38.000000, 97.000000)" fill="#FFFFFF" fill-rule="nonzero">
                                <g id="Icon">
                                    <path d="M24.1666667,4.51414632 C32.5733333,4.51414632 39.3333333,11.3388784 39.3333333,19.7285115 C39.3333333,25.8142558 35.8016667,31.0088732 30.6666667,33.4431709 L30.6666667,43.6367925 L15.5,43.6367925 L15.5,37.1163522 L13.3333333,37.1163522 C10.9283333,37.1163522 9,35.1819549 9,32.769392 L9,26.2489518 L5.75,26.2489518 C4.84,26.2489518 4.32,25.1622117 4.84,24.4884329 L9,18.9895283 C9.39650956,10.8782682 16.07112,4.50788324 24.1666667,4.51414632 M24.1666667,0.167190776 C14.2216667,0.167190776 5.98833333,7.60049266 4.79666667,17.3376834 L1.41666667,21.9019916 L1.35166667,21.9019916 L1.30833333,21.967196 C0.116666667,23.6190409 -0.035,25.792521 0.896666667,27.5965094 C1.67666667,29.0962107 3.06333333,30.1394811 4.66666667,30.4655031 L4.66666667,32.769392 C4.66666667,36.7903302 7.44,40.2026939 11.1666667,41.18076 L11.1666667,47.9837526 L35,47.9837526 L35,36.0296122 C40.4166667,32.3999004 43.6666667,26.3793606 43.6666667,19.7285115 C43.6666667,8.92631551 34.9133333,0.167190776 24.1666667,0.167190776 M32.8333333,17.1855398 C32.8333333,20.5326992 29.8866667,23.2060797 25.4233333,27.2704874 L24.1666667,28.4224319 L22.91,27.2704874 C18.4466667,23.2060797 15.5,20.5326992 15.5,17.1855398 C15.5,14.5773637 17.58,12.4256184 20.18,12.4038836 L20.2666667,12.4038836 C21.7616667,12.4038836 23.1916667,13.0776625 24.1666667,14.2078721 C25.1416667,13.0776625 26.5716667,12.4038836 28.0666667,12.4038836 C30.6666667,12.3821488 32.8333333,14.4904245 32.8333333,17.0986006 L32.8333333,17.1855398 L32.8333333,17.1855398 Z" id="Icon-Shape"></path>
                                </g>
                            </g>
                            <g id="bx-bx-target-lock" transform="translate(253.000000, 94.000000)" fill-rule="nonzero">
                                <g id="Icon" transform="translate(4.000000, 4.000000)" fill="#FFFFFF">
                                    <circle id="Icon-Oval" cx="23.5" cy="23.5" r="6.875"></circle>
                                    <path d="M25.7916667,5.32479167 L25.7916667,0.583333333 L21.2083333,0.583333333 L21.2083333,5.32479167 C12.9134439,6.3822697 6.3822697,12.9134439 5.32479167,21.2083333 L0.583333333,21.2083333 L0.583333333,25.7916667 L5.32479167,25.7916667 C6.38150289,34.0869322 12.9130678,40.6184971 21.2083333,41.6752083 L21.2083333,46.4166667 L25.7916667,46.4166667 L25.7916667,41.6752083 C34.0869322,40.6184971 40.6184971,34.0869322 41.6752083,25.7916667 L46.4166667,25.7916667 L46.4166667,21.2083333 L41.6752083,21.2083333 C40.6177303,12.9134439 34.0865561,6.3822697 25.7916667,5.32479167 Z M23.5,37.25 C15.916875,37.25 9.75,31.083125 9.75,23.5 C9.75,15.916875 15.916875,9.75 23.5,9.75 C31.083125,9.75 37.25,15.916875 37.25,23.5 C37.25,31.083125 31.083125,37.25 23.5,37.25 Z" id="Icon-Shape"></path>
                                </g>
                                <rect id="ViewBox" x="0" y="0" width="55" height="55"></rect>
                            </g>
                            <g id="mdi-lightbulb-on-outline" transform="translate(477.000000, 98.000000)" fill="#FFFFFF" fill-rule="nonzero">
                                <g id="Icon">
                                    <path d="M39.6666667,20.9166667 L45.9166667,20.9166667 L45.9166667,25.0833333 L39.6666667,25.0833333 L39.6666667,20.9166667 M0.0833333333,20.9166667 L6.33333333,20.9166667 L6.33333333,25.0833333 L0.0833333333,25.0833333 L0.0833333333,20.9166667 M25.0833333,0.0833333333 L25.0833333,6.33333333 L20.9166667,6.33333333 L20.9166667,0.0833333333 L25.0833333,0.0833333333 M8.25,5.29166667 L12.6875,9.75 L9.72916667,12.6875 L5.29166667,8.27083333 L8.25,5.29166667 M33.3125,9.72916667 L37.7291667,5.29166667 L40.7083333,8.27083333 L36.2708333,12.6875 L33.3125,9.72916667 M23,10.5 C29.9035594,10.5 35.5,16.0964406 35.5,23 C35.5,27.625 32.9791667,31.6666667 29.25,33.8333333 L29.25,37.5833333 C29.25,38.7339266 28.3172599,39.6666667 27.1666667,39.6666667 L18.8333333,39.6666667 C17.6827401,39.6666667 16.75,38.7339266 16.75,37.5833333 L16.75,33.8333333 C13.0208333,31.6666667 10.5,27.625 10.5,23 C10.5,16.0964406 16.0964406,10.5 23,10.5 M27.1666667,41.75 L27.1666667,43.8333333 C27.1666667,44.9839266 26.2339266,45.9166667 25.0833333,45.9166667 L20.9166667,45.9166667 C19.7660734,45.9166667 18.8333333,44.9839266 18.8333333,43.8333333 L18.8333333,41.75 L27.1666667,41.75 M20.9166667,35.5 L25.0833333,35.5 L25.0833333,31.0625 C28.6875,30.1458333 31.3333333,26.875 31.3333333,23 C31.3333333,18.3976271 27.6023729,14.6666667 23,14.6666667 C18.3976271,14.6666667 14.6666667,18.3976271 14.6666667,23 C14.6666667,26.875 17.3125,30.1458333 20.9166667,31.0625 L20.9166667,35.5 Z" id="Icon-Shape"></path>
                                </g>
                            </g>
                        </g>
                        <text id="Empathize-Explorator" font-family="Lato-Bold, Lato" font-size="24" font-weight="bold" letter-spacing="1.09090907">
                            <tspan x="0" y="24" fill="#EEBCBE">Empathize</tspan>
                            <tspan x="123.434182" y="24" font-size="30" letter-spacing="1.36363633" fill="#000000"></tspan>
                            <tspan x="0" y="58" font-family="Lato-Regular, Lato" font-size="18" font-weight="normal" letter-spacing="0.8181818" fill="#4C4C4C">Exploratory research</tspan>
                            <tspan x="0" y="85" font-family="Lato-Regular, Lato" font-size="18" font-weight="normal" letter-spacing="0.8181818" fill="#4C4C4C">Competitive analysis</tspan>
                            <tspan x="0" y="112" font-family="Lato-Regular, Lato" font-size="18" font-weight="normal" letter-spacing="0.8181818" fill="#4C4C4C">User survey</tspan>
                            <tspan x="0" y="139" font-family="Lato-Regular, Lato" font-size="18" font-weight="normal" letter-spacing="0.8181818" fill="#4C4C4C">User interviews</tspan>
                            <tspan x="136.256727" y="139" font-family="STIXGeneral-Bold, STIXGeneral" font-size="18" letter-spacing="0.8181818" fill="#000000"></tspan>
                        </text>
                        <text id="Synthesis-Problem-st" font-family="Lato-Bold, Lato" font-size="24" font-weight="bold" letter-spacing="1.09090907">
                            <tspan x="206" y="437" fill="#EEBCBE">Synthesis</tspan>
                            <tspan x="206" y="471" font-family="Lato-Regular, Lato" font-size="18" font-weight="normal" letter-spacing="0.8181818" fill="#4C4C4C">Problem statement</tspan>
                            <tspan x="206" y="498" font-family="Lato-Regular, Lato" font-size="18" font-weight="normal" letter-spacing="0.8181818" fill="#4C4C4C">Design Principles</tspan>
                            <tspan x="206" y="525" font-family="Lato-Regular, Lato" font-size="18" font-weight="normal" letter-spacing="0.8181818" fill="#4C4C4C">Persona</tspan>
                            <tspan x="206" y="552" font-family="Lato-Regular, Lato" font-size="18" font-weight="normal" letter-spacing="0.8181818" fill="#4C4C4C">Affinity diagram</tspan>
                            <tspan x="206" y="579" font-family="Lato-Regular, Lato" font-size="18" font-weight="normal" letter-spacing="0.8181818" fill="#4C4C4C">Journey map</tspan>
                            <tspan x="206" y="606" font-family="Lato-Regular, Lato" font-size="18" font-weight="normal" letter-spacing="0.8181818" fill="#4C4C4C">Storyboard</tspan>
                        </text>
                        <text id="Ideation-Six-thinkin" font-family="Lato-Bold, Lato" font-size="24" font-weight="bold" letter-spacing="1.09090907">
                            <tspan x="432" y="58" fill="#EEBCBE">Ideation</tspan>
                            <tspan x="530.415273" y="58" font-family="Lato-Regular, Lato" font-size="18" font-weight="normal" letter-spacing="0.8181818" fill="#000000"></tspan>
                            <tspan x="432" y="92" font-family="Lato-Regular, Lato" font-size="18" font-weight="normal" letter-spacing="0.8181818" fill="#4C4C4C">Six thinking hats</tspan>
                            <tspan x="432" y="119" font-family="Lato-Regular, Lato" font-size="18" font-weight="normal" letter-spacing="0.8181818" fill="#4C4C4C">Mind map</tspan>
                            <tspan x="432" y="146" font-family="Lato-Regular, Lato" font-size="18" font-weight="normal" letter-spacing="0.8181818" fill="#4C4C4C">Evaluation</tspan>
                        </text>
                        <text id="Prototype-Paper-wire" font-family="Lato-Bold, Lato" font-size="24" font-weight="bold" letter-spacing="1.09090907">
                            <tspan x="659" y="437" fill="#EEBCBE">Prototype</tspan>
                            <tspan x="778.690182" y="437" font-family="Lato-Regular, Lato" font-size="18" font-weight="normal" letter-spacing="0.8181818" fill="#000000"></tspan>
                            <tspan x="659" y="471" font-family="Lato-Regular, Lato" font-size="18" font-weight="normal" letter-spacing="0.8181818" fill="#4C4C4C">Paper wireframes</tspan>
                            <tspan x="659" y="498" font-family="Lato-Regular, Lato" font-size="18" font-weight="normal" letter-spacing="0.8181818" fill="#4C4C4C">Low fidelity wireframes</tspan>
                            <tspan x="659" y="525" font-family="Lato-Regular, Lato" font-size="18" font-weight="normal" letter-spacing="0.8181818" fill="#4C4C4C">App map</tspan>
                            <tspan x="659" y="552" font-family="Lato-Regular, Lato" font-size="18" font-weight="normal" letter-spacing="0.8181818" fill="#4C4C4C">Mid-fidelity wireframes</tspan>
                        </text>
                        <text id="Test-Usability-Test" font-family="Lato-Bold, Lato" font-size="24" font-weight="bold" letter-spacing="1.09090907">
                            <tspan x="882" y="88" fill="#EEBCBE">Test</tspan>
                            <tspan x="930.799636" y="88" font-family="Lato-Regular, Lato" font-size="18" font-weight="normal" letter-spacing="0.8181818" fill="#000000"></tspan>
                            <tspan x="882" y="122" font-family="Lato-Regular, Lato" font-size="18" font-weight="normal" letter-spacing="0.8181818" fill="#4C4C4C">Usability Test</tspan>
                            <tspan x="882" y="149" font-family="Lato-Regular, Lato" font-size="18" font-weight="normal" letter-spacing="0.8181818" fill="#4C4C4C">Iteration</tspan>
                        </text>
                    </g>
                </g>
            </g>
        </g>
    </g>
</svg>