<?xml version="1.0" encoding="UTF-8"?>
<svg width="987px" height="305px" viewBox="0 0 987 305" version="1.1" xmlns="http://www.w3.org/2000/svg" xmlns:xlink="http://www.w3.org/1999/xlink">
    <!-- Generator: Sketch 63.1 (92452) - https://sketch.com -->
    <title>Group 35</title>
    <desc>Created with Sketch.</desc>
    <g id="Page-1" stroke="none" stroke-width="1" fill="none" fill-rule="evenodd">
        <g id="Case-study-1" transform="translate(-222.000000, -2804.000000)">
            <g id="Approach" transform="translate(213.000000, 1977.000000)">
                <g id="Group-56">
                    <g id="Group-35" transform="translate(9.000000, 827.000000)">
                        <g id="Target-audience" transform="translate(570.000000, 11.000000)">
                            <g id="Group-31" transform="translate(110.000000, 0.000000)">
                                <g id="Group-2" transform="translate(54.000000, 0.000000)" fill-rule="nonzero">
                                    <circle id="Oval" fill="#FFD681" cx="31.2871094" cy="39.1347656" r="7.64648438"></circle>
                                    <path d="M42.5552734,69.3158203 L20.8013672,69.3158203 C20.3699219,69.3158203 20.0201172,68.9660156 20.0201172,68.5345703 L20.0201172,58.0482422 C20.0201172,51.8253906 25.0648438,46.7806641 31.2876953,46.7806641 L31.2876953,46.7806641 C37.5105469,46.7806641 42.5552734,51.8253906 42.5552734,58.0482422 L42.5552734,69.3158203 Z" id="Path" fill="#93E1D8"></path>
                                    <path d="M31.2876953,46.7806641 L31.2876953,46.7806641 C30.2417969,46.7806641 29.2304688,46.9261719 28.2695313,47.1927734 C33.0261719,48.5126953 36.5189453,52.8710937 36.5189453,58.0482422 L36.5189453,69.3158203 L42.5550781,69.3158203 L42.5550781,58.0482422 C42.5552734,51.8253906 37.5107422,46.7806641 31.2876953,46.7806641 Z" id="Path" fill="#6AABA4"></path>
                                    <circle id="Oval" fill="#FFD681" cx="68.7128906" cy="39.1347656" r="7.64648437"></circle>
                                    <path d="M79.1986328,69.3158203 L57.4447266,69.3158203 L57.4447266,58.0482422 C57.4447266,51.8253906 62.4894531,46.7806641 68.7123047,46.7806641 L68.7123047,46.7806641 C74.9351563,46.7806641 79.9798828,51.8253906 79.9798828,58.0482422 L79.9798828,68.5345703 C79.9798828,68.9662109 79.6300781,69.3158203 79.1986328,69.3158203 Z" id="Path" fill="#93E1D8"></path>
                                    <path d="M68.7123047,46.7806641 L68.7123047,46.7806641 C67.6664062,46.7806641 66.6550781,46.9261719 65.6941406,47.1927734 C70.4507812,48.5126953 73.9435547,52.8710937 73.9435547,58.0482422 L73.9435547,69.3158203 L79.1984375,69.3158203 C79.6298828,69.3158203 79.9796875,68.9660156 79.9796875,68.5345703 L79.9796875,58.0482422 C79.9798828,51.8253906 74.9351562,46.7806641 68.7123047,46.7806641 Z" id="Path" fill="#6AABA4"></path>
                                    <circle id="Oval" fill="#FFD681" cx="50" cy="33.8867188" r="9.55742188"></circle>
                                    <path d="M65.3152344,75.6365234 L34.6847656,75.6365234 C34.2533203,75.6365234 33.9035156,75.2867188 33.9035156,74.8552734 L33.9035156,59.5398438 C33.9035156,50.65 41.1101562,43.4433594 50,43.4433594 L50,43.4433594 C58.8898437,43.4433594 66.0964844,50.65 66.0964844,59.5398438 L66.0964844,74.8552734 C66.0964844,75.2867188 65.746875,75.6365234 65.3152344,75.6365234 Z" id="Path" fill="#93E1D8"></path>
                                    <path d="M50,43.4433594 L50,43.4433594 C48.9679688,43.4433594 47.9599609,43.5443359 46.9818359,43.7300781 C54.4285156,45.1433594 60.0603516,51.6822266 60.0603516,59.5398438 L60.0603516,75.6365234 L65.3152344,75.6365234 C65.7466797,75.6365234 66.0964844,75.2867188 66.0964844,74.8552734 L66.0964844,59.5398438 C66.0964844,50.65 58.8898438,43.4433594 50,43.4433594 Z" id="Path" fill="#6AABA4"></path>
                                    <path d="M2.87226563,25.4492187 C1.24882813,25.3728516 2.22044605e-14,23.9744141 2.22044605e-14,22.3494141 L2.22044605e-14,14.1851562 C2.22044605e-14,10.8513672 2.70253906,8.14902344 6.03613281,8.14902344 L14.2003906,8.14902344 C15.8255859,8.14902344 17.2238281,9.39785156 17.3003906,11.0212891 C17.3820313,12.7544922 16.0009766,14.1853516 14.2857422,14.1853516 L6.42675781,14.1853516 C6.2109375,14.1853516 6.03613281,14.3601562 6.03613281,14.5759766 L6.03613281,22.4347656 C6.03613281,24.1498047 4.60527344,25.5308594 2.87226563,25.4492187 Z" id="Path" fill="#EEBCBE"></path>
                                    <path d="M97.1277344,25.4492188 C98.7509766,25.3728516 100,23.9744141 100,22.3492188 L100,14.1851563 C100,10.8513672 97.2974609,8.14902344 93.9638672,8.14902344 L85.7996094,8.14902344 C84.1744141,8.14902344 82.7761719,9.39785156 82.6996094,11.0212891 C82.6179688,12.7544922 83.9990234,14.1853516 85.7142578,14.1853516 L93.5730469,14.1853516 C93.7888672,14.1853516 93.9636719,14.3601563 93.9636719,14.5759766 L93.9636719,22.4347656 C93.9638672,24.1498047 95.3947266,25.5308594 97.1277344,25.4492188 Z" id="Path" fill="#EEBCBE"></path>
                                    <path d="M97.1277344,74.5507812 C98.7509766,74.6271484 100,76.0255859 100,77.6507813 L100,85.8150391 C100,89.1488281 97.2974609,91.8511719 93.9638672,91.8511719 L85.7996094,91.8511719 C84.1744141,91.8511719 82.7761719,90.6023438 82.6996094,88.9789062 C82.6179688,87.2457031 83.9990234,85.8148438 85.7142578,85.8148438 L93.5730469,85.8148438 C93.7888672,85.8148438 93.9636719,85.6400391 93.9636719,85.4242188 L93.9636719,77.5654297 C93.9638672,75.8501953 95.3947266,74.4691406 97.1277344,74.5507812 Z" id="Path" fill="#EEBCBE"></path>
                                    <path d="M2.87226563,74.5507812 C1.24882813,74.6271484 2.22044605e-14,76.0255859 2.22044605e-14,77.6505859 L2.22044605e-14,85.8148437 C2.22044605e-14,89.1486328 2.70253906,91.8509766 6.03613281,91.8509766 L14.2003906,91.8509766 C15.8255859,91.8509766 17.2238281,90.6021484 17.3003906,88.9787109 C17.3820313,87.2455078 16.0009766,85.8146484 14.2857422,85.8146484 L6.42675781,85.8146484 C6.2109375,85.8146484 6.03613281,85.6398437 6.03613281,85.4240234 L6.03613281,77.5652344 C6.03613281,75.8501953 4.60527344,74.4691406 2.87226563,74.5507812 Z" id="Path" fill="#EEBCBE"></path>
                                    <path d="M50,14.0845703 C48.3332031,14.0845703 46.9818359,12.7332031 46.9818359,11.0664062 L46.9818359,3.01816406 C46.9818359,1.35136719 48.3332031,0 50,0 C51.6667969,0 53.0181641,1.35136719 53.0181641,3.01816406 L53.0181641,11.0664062 C53.0181641,12.7332031 51.6667969,14.0845703 50,14.0845703 Z" id="Path" fill="#EEBCBE"></path>
                                    <path d="M50,100 C48.3332031,100 46.9818359,98.6486328 46.9818359,96.9818359 L46.9818359,88.9335937 C46.9818359,87.2667969 48.3332031,85.9154297 50,85.9154297 C51.6667969,85.9154297 53.0181641,87.2667969 53.0181641,88.9335937 L53.0181641,96.9818359 C53.0181641,98.6486328 51.6667969,100 50,100 Z" id="Path" fill="#EEBCBE"></path>
                                    <path d="M85.9154297,50 C85.9154297,48.3332031 87.2667969,46.9818359 88.9335937,46.9818359 L96.9818359,46.9818359 C98.6486328,46.9818359 100,48.3332031 100,50 C100,51.6667969 98.6486328,53.0181641 96.9818359,53.0181641 L88.9335937,53.0181641 C87.2667969,53.0181641 85.9154297,51.6667969 85.9154297,50 Z" id="Path" fill="#EEBCBE"></path>
                                    <path d="M-1.66533454e-14,50 C-1.66533454e-14,48.3332031 1.35136719,46.9818359 3.01816406,46.9818359 L11.0664062,46.9818359 C12.7332031,46.9818359 14.0845703,48.3332031 14.0845703,50 C14.0845703,51.6667969 12.7332031,53.0181641 11.0664062,53.0181641 L3.01816406,53.0181641 C1.35136719,53.0181641 -1.66533454e-14,51.6667969 -1.66533454e-14,50 Z" id="Path" fill="#EEBCBE"></path>
                                    <path d="M50.0529297,68.1972656 C49.6677734,68.1972656 49.2960938,68.0455078 49.0205078,67.7712891 L41.875,60.6699219 C41.3011719,60.0996094 41.2982422,59.1722656 41.8685547,58.5984375 C42.4386719,58.0246094 43.3662109,58.021875 43.9400391,58.5921875 L49.8462891,64.4619141 L56.3923828,55.0322266 C56.8537109,54.3681641 57.7666016,54.203125 58.4310547,54.6642578 C59.0957031,55.1255859 59.2603516,56.0382812 58.7990234,56.7029297 L51.2564453,67.5679687 C51.009375,67.9236328 50.6173828,68.1519531 50.1859375,68.1912109 C50.1416016,68.1953125 50.0970703,68.1972656 50.0529297,68.1972656 Z" id="Path" fill="#FEDCB0"></path>
                                </g>
                                <text id="Target-Audience" font-family="Lato-Bold, Lato" font-size="24" font-weight="bold" letter-spacing="2.22666667" fill="#EEBCBE">
                                    <tspan x="0" y="129">Target Audience</tspan>
                                </text>
                            </g>
                            <g id="Group-14" transform="translate(0.000000, 154.000000)">
                                <g id="Group-13" transform="translate(0.000000, 6.000000)" fill="#EEBCBE">
                                    <ellipse id="Oval" cx="5.5" cy="5" rx="5.5" ry="5"></ellipse>
                                    <ellipse id="Oval" cx="5.5" cy="39" rx="5.5" ry="5"></ellipse>
                                    <ellipse id="Oval" cx="5.5" cy="93" rx="5.5" ry="5"></ellipse>
                                    <ellipse id="Oval" cx="5.5" cy="123" rx="5.5" ry="5"></ellipse>
                                </g>
                                <text id="Demographics,-behavi" font-family="Lato-Regular, Lato" font-size="18" font-weight="normal" letter-spacing="1.67" fill="#4C4C4C">
                                    <tspan x="22" y="18">Demographics, behaviors, motivations</tspan>
                                    <tspan x="22" y="50">Both negative and positive experiences on </tspan>
                                    <tspan x="22" y="72">booking home service</tspan>
                                    <tspan x="22" y="104">Most valued features</tspan>
                                    <tspan x="22" y="136">Most frequently used device</tspan>
                                </text>
                            </g>
                        </g>
                        <g id="Group-34">
                            <g id="Group-33" transform="translate(0.000000, 168.000000)">
                                <g id="Group-13" transform="translate(0.000000, 4.000000)" fill="#EEBCBE">
                                    <ellipse id="Oval" cx="5.54932735" cy="5" rx="5.54932735" ry="5"></ellipse>
                                    <ellipse id="Oval" cx="5.54932735" cy="39" rx="5.54932735" ry="5"></ellipse>
                                    <ellipse id="Oval" cx="5.54932735" cy="73" rx="5.54932735" ry="5"></ellipse>
                                </g>
                                <text id="Emerging-industry-tr" font-family="Lato-Regular, Lato" font-size="18" font-weight="normal" letter-spacing="1.67" fill="#4C4C4C">
                                    <tspan x="22" y="18">Emerging industry trends</tspan>
                                    <tspan x="22" y="50">Lead competitors - strengths &amp; weaknesses</tspan>
                                    <tspan x="22" y="82">Opportunity gaps</tspan>
                                </text>
                            </g>
                            <g id="Group-32" transform="translate(190.000000, 0.000000)">
                                <g id="Group-30" fill-rule="nonzero">
                                    <path d="M50.395024,108.521611 L50.395024,102.712933 L39.0939663,102.712933 L39.0939663,108.521611 C39.0939663,109.757812 40.1053846,110.769231 41.3415865,110.769231 L48.1471875,110.769231 C49.3836058,110.769231 50.395024,109.757812 50.395024,108.521611 Z" id="Path" fill="#707487"></path>
                                    <path d="M44.7444952,108.521611 L44.7444952,102.712933 L39.0939663,102.712933 L39.0939663,108.521611 C39.0939663,109.757812 40.1053846,110.769231 41.3415865,110.769231 L46.9921154,110.769231 C45.7561298,110.769231 44.7444952,109.757812 44.7444952,108.521611 Z" id="Path" fill="#5B5D6E"></path>
                                    <path d="M32.5166106,79.3434375 L32.5166106,88.576226 L56.9723798,88.576226 L56.9723798,79.4933654 C56.9723798,76.2254567 58.66875,73.2028846 61.4364663,71.4651923 C70.2923798,65.9050962 76.179375,56.0518269 76.179375,44.8232452 C76.179375,27.529399 62.2142308,13.4971875 44.9459135,13.3881767 C27.601875,13.279976 13.309399,27.4792067 13.309399,44.8234615 C13.309399,56.1236538 19.2723317,66.0310096 28.2227885,71.5712019 C30.9069952,73.2329567 32.5166106,76.1869471 32.5166106,79.3434375 Z" id="Path" fill="#93E1D8"></path>
                                    <path d="M32.7474519,71.5714183 C23.7969952,66.031226 17.8340625,56.1238702 17.8340625,44.8236779 C17.8338462,28.3084615 30.7925481,14.6455529 47.0050962,13.4707933 C46.3242548,13.4223317 45.6382212,13.3933413 44.9463462,13.3883931 C27.6023077,13.2801923 13.3098317,27.4794231 13.3098317,44.8236779 C13.3098317,56.1238702 19.2727644,66.031226 28.2232212,71.5714183 C30.9072115,73.2327404 32.5168269,76.1867308 32.5168269,79.3434375 L32.5168269,88.576226 L37.0410577,88.576226 L37.0410577,79.3434375 C37.0410577,76.1869471 35.431226,73.2329567 32.7474519,71.5714183 Z" id="Path" fill="#6AABA4"></path>
                                    <g id="Group" transform="translate(29.607837, 87.836538)" fill="#E4EAF8">
                                        <path d="M27.6501202,7.69824519 L2.62319712,7.69824519 C1.1953125,7.69824519 0.0270432692,6.52997596 0.0270432692,5.10209135 L0.0270432692,2.67706731 C0.0270432692,1.24918269 1.1953125,0.0809134615 2.62319712,0.0809134615 L27.6501202,0.0809134615 C29.0780048,0.0809134615 30.246274,1.24918269 30.246274,2.67706731 L30.246274,5.10209135 C30.246274,6.52997596 29.0780048,7.69824519 27.6501202,7.69824519 Z" id="Path"></path>
                                        <path d="M27.6501202,15.3153606 L2.62319712,15.3153606 C1.1953125,15.3153606 0.0270432692,14.1470913 0.0270432692,12.7192067 L0.0270432692,10.2941827 C0.0270432692,8.86629808 1.1953125,7.69802885 2.62319712,7.69802885 L27.6501202,7.69802885 C29.0780048,7.69802885 30.246274,8.86629808 30.246274,10.2941827 L30.246274,12.7192067 C30.246274,14.1470913 29.0780048,15.3153606 27.6501202,15.3153606 Z" id="Path"></path>
                                    </g>
                                    <g id="Group" transform="translate(29.607837, 89.783654)" fill="#D8DCE5">
                                        <path d="M27.6113942,1.94235577 L2.66213942,1.94235577 C1.46639423,1.94235577 0.452163462,1.13430288 0.133052885,0.0380769231 C0.0653365385,0.270432692 0.0272596154,0.515120192 0.0272596154,0.768677885 L0.0272596154,3.11603365 C0.0272596154,4.56533654 1.21305288,5.75091346 2.66213942,5.75091346 L27.6113942,5.75091346 C29.0604808,5.75091346 30.246274,4.56512019 30.246274,3.11603365 L30.246274,0.768677885 C30.246274,0.515120192 30.2079808,0.270432692 30.1404808,0.0380769231 C29.8213702,1.13451923 28.8071394,1.94235577 27.6113942,1.94235577 Z" id="Path"></path>
                                        <path d="M27.6113942,9.5596875 L2.66213942,9.5596875 C1.46639423,9.5596875 0.452163462,8.75163462 0.133052885,7.65540865 C0.0653365385,7.88776442 0.0272596154,8.13245192 0.0272596154,8.38600962 L0.0272596154,10.7333654 C0.0272596154,12.1824519 1.21305288,13.3682452 2.66213942,13.3682452 L27.6113942,13.3682452 C29.0604808,13.3682452 30.246274,12.1824519 30.246274,10.7333654 L30.246274,8.38600962 C30.246274,8.13245192 30.2079808,7.88776442 30.1404808,7.65540865 C29.8213702,8.75163462 28.8071394,9.5596875 27.6113942,9.5596875 Z" id="Path"></path>
                                    </g>
                                    <path d="M7.11,46.615024 L1.64682692,46.615024 C0.737307692,46.615024 -4.4408921e-15,45.8777163 -4.4408921e-15,44.9681971 C-4.4408921e-15,44.0586779 0.737307692,43.3213702 1.64682692,43.3213702 L7.11,43.3213702 C8.01951923,43.3213702 8.75682692,44.0586779 8.75682692,44.9681971 C8.75682692,45.8777163 8.01951923,46.615024 7.11,46.615024 Z" id="Path" fill="#FFD681"></path>
                                    <path d="M88.29,46.615024 L82.8268269,46.615024 C81.9173077,46.615024 81.18,45.8777163 81.18,44.9681971 C81.18,44.0586779 81.9173077,43.3213702 82.8268269,43.3213702 L88.29,43.3213702 C89.1995192,43.3213702 89.9368269,44.0586779 89.9368269,44.9681971 C89.9368269,45.8777163 89.1995192,46.615024 88.29,46.615024 Z" id="Path" fill="#FFD681"></path>
                                    <path d="M13.1709375,76.7656731 C12.5277404,76.1226923 12.5277404,75.0799038 13.1709375,74.4367067 L17.0337981,70.5738462 C17.6767788,69.9308654 18.7195673,69.9308654 19.3627644,70.5738462 C20.0059615,71.2168269 20.0059615,72.2596154 19.3627644,72.9028125 L15.4999038,76.7656731 C14.8567067,77.4088702 13.8141346,77.4088702 13.1709375,76.7656731 Z" id="Path" fill="#FFD681"></path>
                                    <path d="M44.9684135,8.75661058 C44.0588942,8.75661058 43.3215865,8.01930288 43.3215865,7.10978365 L43.3215865,1.64682692 C43.3215865,0.737307692 44.0588942,3.49942297e-13 44.9684135,3.49942297e-13 C45.8779327,3.49942297e-13 46.6152404,0.737307692 46.6152404,1.64682692 L46.6152404,7.10978365 C46.6152404,8.01930288 45.8779327,8.75661058 44.9684135,8.75661058 Z" id="Path" fill="#FFD681"></path>
                                    <path d="M74.4369231,76.7656731 L70.5738462,72.9028125 C69.930649,72.2598317 69.930649,71.2170433 70.5738462,70.5738462 C71.2168269,69.9308654 72.2596154,69.9308654 72.9028125,70.5738462 L76.7658894,74.4367067 C77.4090865,75.0796875 77.4090865,76.122476 76.7658894,76.7656731 C76.1226923,77.4088702 75.0799038,77.4088702 74.4369231,76.7656731 Z" id="Path" fill="#FFD681"></path>
                                    <path d="M17.0340144,19.3627644 L13.1711538,15.4999038 C12.5279567,14.8569231 12.5279567,13.8141346 13.1711538,13.1709375 C13.8141346,12.5279567 14.8569231,12.5279567 15.5001202,13.1709375 L19.3629808,17.0337981 C20.0061779,17.6767788 20.0061779,18.7195673 19.3629808,19.3627644 C18.7197837,20.0059615 17.6769952,20.0059615 17.0340144,19.3627644 Z" id="Path" fill="#FFD681"></path>
                                    <path d="M84.1802885,12.0918029 L74.6653846,12.0918029 C73.3534615,12.0918029 72.2901202,13.1551442 72.2901202,14.4670673 C72.2901202,15.7789904 73.3534615,16.8423317 74.6653846,16.8423317 L78.619976,16.8423317 L50.7117548,45.2260817 L44.3027163,40.6748077 C43.3150962,39.9734135 41.9577404,40.1276683 41.1527163,41.0326442 L27.4865625,56.3960337 C26.1190385,57.9333894 27.229976,60.349976 29.2603846,60.349976 C29.9150481,60.349976 30.5666827,60.0808413 31.0359375,59.5533894 L43.2874038,45.7803606 L49.6112019,50.2710577 C50.5620433,50.946274 51.8625,50.8311779 52.6800721,49.9997596 L81.805024,20.3789423 L81.805024,24.4555529 C81.805024,25.7672596 82.8683654,26.8308173 84.1802885,26.8308173 C85.4922115,26.8308173 86.5555529,25.7672596 86.5555529,24.4555529 L86.5555529,14.4670673 C86.5555529,13.1553606 85.4919952,12.0918029 84.1802885,12.0918029 Z" id="Path" fill="#EEBCBE"></path>
                                    <path d="M74.6653846,16.8423317 L76.4924279,16.8423317 C75.2523317,16.7873798 74.0466346,16.5610817 74.0466346,15.7634135 C74.0466346,14.4514904 75.109976,13.388149 76.421899,13.388149 L85.9368029,13.388149 C86.0640144,13.388149 86.1881971,13.4009135 86.31,13.4203846 C85.9227404,12.6341827 85.1159856,12.0918029 84.1802885,12.0918029 L74.6653846,12.0918029 C73.3534615,12.0918029 72.2901202,13.1551442 72.2901202,14.4670673 C72.2901202,15.7789904 73.3534615,16.8423317 74.6653846,16.8423317 Z" id="Path" fill="#D7A8AA"></path>
                                    <path d="M45.9917308,41.8742308 L44.3027163,40.6748077 C43.3150962,39.9734135 41.9577404,40.1276683 41.1527163,41.0326442 L27.5242067,56.3536298 C26.2458173,57.790601 27.0279087,60.0239423 28.8871875,60.3188221 C28.4741827,59.4778846 28.5821394,58.4355288 29.2432933,57.6923798 L42.9094471,42.3289904 C43.6854808,41.4566827 45.0151442,41.2574279 45.9917308,41.8742308 L45.9917308,41.8742308 Z" id="Path" fill="#D7A8AA"></path>
                                    <path d="M80.2388942,16.7586058 L78.619976,16.8423317 L50.7117548,45.2260817 L51.8573077,46.0715625 C52.2077885,46.3303125 52.6952163,46.2915865 53.0006971,45.9809135 L80.708149,17.8016106 C81.1003846,17.4026683 80.7977163,16.7298317 80.2388942,16.7586058 Z" id="Path" fill="#D7A8AA"></path>
                                </g>
                                <text id="Market" font-family="Lato-Bold, Lato" font-size="24" font-weight="bold" letter-spacing="2.22666667" fill="#EEBCBE">
                                    <tspan x="0" y="145">Market</tspan>
                                </text>
                            </g>
                        </g>
                    </g>
                </g>
            </g>
        </g>
    </g>
</svg>