<?xml version="1.0" encoding="UTF-8"?>
<svg width="8px" height="13px" viewBox="0 0 8 13" version="1.1" xmlns="http://www.w3.org/2000/svg" xmlns:xlink="http://www.w3.org/1999/xlink">
    <!-- Generator: Sketch 63.1 (92452) - https://sketch.com -->
    <title>ic-round-navigate-next</title>
    <desc>Created with Sketch.</desc>
    <g id="Page-1" stroke="none" stroke-width="1" fill="none" fill-rule="evenodd" fill-opacity="0.699519231">
        <g id="Home-page" transform="translate(-630.000000, -1923.000000)" fill="#000000" fill-rule="nonzero">
            <g id="Group-5" transform="translate(159.000000, 1452.000000)">
                <g id="Group-2" transform="translate(0.000000, 156.000000)">
                    <g id="Group-6" transform="translate(216.000000, 308.000000)">
                        <g id="ic-round-navigate-next" transform="translate(255.000000, 7.000000)">
                            <g id="Icon">
                                <path d="M0.419056689,0.379506173 C0.21108133,0.596338172 0.0942061123,0.890692713 0.0942061123,1.19765432 C0.0942061123,1.50461593 0.21108133,1.79897047 0.419056689,2.01580247 L4.72901039,6.51851852 L0.419056689,11.0212346 C-0.0134502178,11.4730853 -0.0134502178,12.2056801 0.419056689,12.6575309 C0.851563596,13.1093816 1.55279584,13.1093816 1.98530275,12.6575309 L7.08393354,7.3308642 C7.2919089,7.1140322 7.40878412,6.81967766 7.40878412,6.51271605 C7.40878412,6.20575444 7.2919089,5.9113999 7.08393354,5.6945679 L1.98530275,0.367901235 C1.56319388,-0.0730864198 0.852273684,-0.0730864198 0.419056689,0.379506173 Z" id="Icon-Path"></path>
                            </g>
                        </g>
                    </g>
                </g>
            </g>
        </g>
    </g>
</svg>