<?xml version="1.0" encoding="UTF-8"?>
<svg width="236px" height="236px" viewBox="0 0 236 236" version="1.1" xmlns="http://www.w3.org/2000/svg" xmlns:xlink="http://www.w3.org/1999/xlink">
    <!-- Generator: Sketch 63.1 (92452) - https://sketch.com -->
    <title>ant-design:instagram-filled</title>
    <desc>Created with Sketch.</desc>
    <g id="Page-1" stroke="none" stroke-width="1" fill="none" fill-rule="evenodd">
        <g id="ant-design:instagram-filled" transform="translate(-32.000000, -32.000000)" fill-rule="nonzero">
            <g id="Icon" fill="#000000">
                <path d="M150,110.947266 C128.496094,110.947266 110.947266,128.496094 110.947266,150 C110.947266,171.503906 128.496094,189.052734 150,189.052734 C171.503906,189.052734 189.052734,171.503906 189.052734,150 C189.052734,128.496094 171.503906,110.947266 150,110.947266 Z M267.128906,150 C267.128906,133.828125 267.275391,117.802734 266.367188,101.660156 C265.458984,82.9101562 261.181641,66.2695312 247.470703,52.5585938 C233.730469,38.8183594 217.119141,34.5703125 198.369141,33.6621094 C182.197266,32.7539062 166.171875,32.9003906 150.029297,32.9003906 C133.857422,32.9003906 117.832031,32.7539062 101.689453,33.6621094 C82.9394531,34.5703125 66.2988281,38.8476562 52.5878906,52.5585938 C38.8476562,66.2988281 34.5996094,82.9101562 33.6914062,101.660156 C32.7832031,117.832031 32.9296875,133.857422 32.9296875,150 C32.9296875,166.142578 32.7832031,182.197266 33.6914062,198.339844 C34.5996094,217.089844 38.8769531,233.730469 52.5878906,247.441406 C66.328125,261.181641 82.9394531,265.429688 101.689453,266.337891 C117.861328,267.246094 133.886719,267.099609 150.029297,267.099609 C166.201172,267.099609 182.226563,267.246094 198.369141,266.337891 C217.119141,265.429688 233.759766,261.152344 247.470703,247.441406 C261.210938,233.701172 265.458984,217.089844 266.367188,198.339844 C267.304688,182.197266 267.128906,166.171875 267.128906,150 Z M150,210.087891 C116.748047,210.087891 89.9121094,183.251953 89.9121094,150 C89.9121094,116.748047 116.748047,89.9121094 150,89.9121094 C183.251953,89.9121094 210.087891,116.748047 210.087891,150 C210.087891,183.251953 183.251953,210.087891 150,210.087891 Z M212.548828,101.484386 C204.785156,101.484386 198.515625,95.2148438 198.515625,87.4511719 C198.515625,79.6875 204.785156,73.4179688 212.548828,73.4179688 C220.3125,73.4179688 226.582042,79.6875 226.582042,87.4511719 C226.586704,91.1744392 225.10971,94.7465549 222.476961,97.3793045 C219.844211,100.012054 216.272095,101.489048 212.548828,101.484386 L212.548828,101.484386 Z" id="Icon-Shape"></path>
            </g>
            <rect id="ViewBox" x="0" y="0" width="300" height="300"></rect>
        </g>
    </g>
</svg>