<?xml version="1.0" encoding="UTF-8"?>
<svg width="236px" height="236px" viewBox="0 0 236 236" version="1.1" xmlns="http://www.w3.org/2000/svg" xmlns:xlink="http://www.w3.org/1999/xlink">
    <!-- Generator: Sketch 63.1 (92452) - https://sketch.com -->
    <title>ant-design:linkedin-filled</title>
    <desc>Created with Sketch.</desc>
    <g id="Page-1" stroke="none" stroke-width="1" fill="none" fill-rule="evenodd">
        <g id="ant-design:linkedin-filled" transform="translate(-32.000000, -32.000000)" fill-rule="nonzero">
            <g id="Icon" fill="#000000">
                <path d="M257.8125,32.8125 L42.1875,32.8125 C37.0019531,32.8125 32.8125,37.0019531 32.8125,42.1875 L32.8125,257.8125 C32.8125,262.998047 37.0019531,267.1875 42.1875,267.1875 L257.8125,267.1875 C262.998047,267.1875 267.1875,262.998047 267.1875,257.8125 L267.1875,42.1875 C267.1875,37.0019531 262.998047,32.8125 257.8125,32.8125 Z M102.333984,232.529297 L67.5585938,232.529297 L67.5585938,120.673828 L102.333984,120.673828 L102.333984,232.529297 Z M84.9609375,105.380859 C73.828948,105.380859 64.8046875,96.3565989 64.8046875,85.2246094 C64.8046875,74.0926199 73.828948,65.0683594 84.9609375,65.0683594 C96.092927,65.0683594 105.117187,74.0926199 105.117187,85.2246094 C105.087891,96.3574219 96.0644531,105.380859 84.9609375,105.380859 L84.9609375,105.380859 Z M232.529297,232.529297 L197.783203,232.529297 L197.783203,178.125 C197.783203,165.146484 197.548828,148.476562 179.707031,148.476562 C161.630859,148.476562 158.847656,162.597656 158.847656,177.1875 L158.847656,232.529297 L124.130859,232.529297 L124.130859,120.673828 L157.470703,120.673828 L157.470703,135.966797 L157.939453,135.966797 C162.568359,127.177734 173.90625,117.890625 190.839844,117.890625 C226.054688,117.890625 232.529297,141.064453 232.529297,171.181641 L232.529297,232.529297 L232.529297,232.529297 Z" id="Icon-Shape"></path>
            </g>
            <rect id="ViewBox" x="0" y="0" width="300" height="300"></rect>
        </g>
    </g>
</svg>